<?xml version="1.0" standalone="no"?>
<!DOCTYPE svg PUBLIC "-//W3C//DTD SVG 20010904//EN"
 "http://www.w3.org/TR/2001/REC-SVG-20010904/DTD/svg10.dtd">
<svg version="1.0" xmlns="http://www.w3.org/2000/svg"
 width="700.000000pt" height="700.000000pt" viewBox="0 0 700.000000 700.000000"
 preserveAspectRatio="xMidYMid meet">

<g transform="translate(0.000000,700.000000) scale(0.100000,-0.100000)"
fill="#000000" stroke="none">
<path d="M0 3500 l0 -3500 3500 0 3500 0 0 3500 0 3500 -3500 0 -3500 0 0
-3500z m5312 2719 c9 -5 20 -18 23 -29 4 -13 15 -20 31 -20 14 0 36 -11 50
-25 14 -14 29 -25 34 -25 17 0 95 -73 185 -171 72 -81 115 -152 115 -194 0
-14 9 -43 20 -65 18 -36 20 -59 20 -263 0 -205 -2 -226 -19 -248 -10 -14 -23
-41 -29 -62 -10 -36 -74 -142 -90 -149 -4 -1 -16 -17 -27 -34 -28 -45 -152
-154 -174 -154 -10 0 -22 -7 -25 -15 -3 -9 -23 -23 -43 -32 -21 -8 -48 -24
-62 -34 -13 -10 -37 -19 -53 -19 -17 0 -41 -9 -55 -20 -24 -18 -41 -20 -203
-20 -156 0 -183 2 -221 20 -24 11 -54 20 -66 20 -12 0 -35 11 -51 25 -17 14
-40 25 -51 25 -12 0 -33 11 -47 25 -14 14 -31 25 -39 25 -24 0 -143 115 -186
179 -22 34 -45 61 -50 61 -6 0 -17 17 -26 38 -20 48 -18 48 -49 23 -22 -17
-40 -21 -105 -21 -70 0 -81 -3 -103 -25 -22 -22 -33 -25 -101 -25 -63 0 -81
-4 -106 -22 -25 -19 -46 -24 -122 -26 -67 -3 -97 -8 -110 -20 -11 -10 -47 -19
-92 -23 -53 -5 -83 -14 -101 -28 -23 -18 -41 -21 -115 -21 -78 0 -93 -3 -125
-25 -32 -22 -48 -25 -120 -25 l-84 0 0 -34 c0 -49 9 -66 35 -66 13 0 37 -11
53 -25 17 -14 37 -25 46 -25 9 0 26 -10 38 -22 24 -24 53 -41 126 -76 23 -12
42 -26 42 -31 0 -6 11 -11 25 -11 14 0 35 -10 47 -22 13 -13 39 -28 58 -35 29
-10 39 -10 57 3 13 8 23 19 23 24 0 6 12 16 27 23 15 6 37 22 50 35 12 12 29
22 38 22 9 0 28 9 42 20 14 11 31 20 37 20 7 0 27 11 46 25 26 19 46 25 84 25
28 0 83 7 121 17 39 9 88 16 110 16 22 0 71 -7 110 -16 38 -10 91 -17 117 -17
35 0 54 -6 76 -25 17 -14 39 -25 50 -25 10 0 30 -8 43 -18 13 -11 35 -22 49
-25 14 -4 70 -49 125 -101 55 -52 108 -102 117 -110 10 -9 20 -28 24 -43 4
-16 15 -37 24 -48 29 -33 80 -130 80 -153 0 -11 10 -37 22 -58 20 -34 21 -49
21 -221 -1 -172 -2 -187 -22 -214 -12 -16 -21 -43 -21 -63 0 -22 -16 -66 -42
-116 -24 -45 -50 -95 -59 -112 -9 -17 -23 -36 -31 -42 -8 -6 -18 -21 -22 -33
-7 -21 -119 -123 -136 -123 -4 0 -27 -18 -51 -40 -24 -22 -59 -44 -76 -49 -18
-5 -45 -19 -59 -30 -19 -15 -41 -21 -75 -21 -35 0 -58 -7 -85 -25 -35 -24 -43
-25 -186 -25 -105 0 -157 4 -176 13 -15 8 -56 20 -91 27 -36 8 -72 21 -82 31
-10 10 -36 23 -59 29 -23 6 -44 18 -47 26 -3 7 -13 14 -23 14 -39 0 -135 83
-217 187 -132 169 -183 346 -169 597 4 66 9 128 12 136 2 10 -6 20 -24 27 -15
7 -34 17 -42 22 -8 6 -31 18 -50 26 -63 28 -106 53 -119 69 -8 9 -20 16 -27
16 -8 0 -22 8 -32 18 -10 9 -33 25 -52 34 -19 10 -42 22 -50 26 -40 22 -121
62 -125 62 -14 0 -2 -43 20 -76 14 -20 25 -47 25 -60 0 -13 9 -33 20 -44 12
-12 20 -34 20 -52 0 -18 12 -51 25 -73 14 -22 25 -51 25 -63 0 -13 9 -35 20
-49 11 -14 20 -36 20 -48 0 -13 11 -43 25 -66 14 -24 25 -59 25 -77 0 -31 36
-113 53 -120 15 -7 35 -58 42 -107 4 -28 16 -64 26 -81 11 -17 19 -43 19 -57
0 -14 11 -43 25 -63 14 -20 25 -45 25 -56 0 -10 11 -36 25 -56 18 -26 25 -50
25 -84 l0 -48 63 0 c44 0 71 -6 95 -20 18 -11 45 -20 61 -20 15 0 45 -11 65
-25 20 -14 45 -25 56 -25 10 0 32 -11 48 -25 17 -14 37 -25 46 -25 29 0 176
-157 203 -218 15 -31 34 -68 45 -81 10 -13 18 -39 18 -57 0 -18 10 -50 23 -71
20 -35 22 -50 22 -190 0 -141 -1 -153 -22 -182 -16 -21 -23 -44 -23 -76 0 -36
-6 -52 -25 -71 -14 -14 -25 -34 -25 -45 0 -20 -24 -49 -121 -148 -76 -77 -117
-111 -133 -111 -8 0 -16 -7 -19 -14 -3 -8 -25 -20 -49 -26 -24 -6 -56 -18 -73
-28 -75 -42 -461 -43 -525 -1 -14 9 -41 21 -61 28 -20 6 -56 30 -79 51 -24 22
-50 40 -57 40 -19 0 -153 132 -173 169 -8 16 -33 62 -54 102 -57 108 -65 178
-49 440 7 110 11 130 33 165 14 21 40 69 58 106 18 37 41 70 51 73 10 3 31 23
45 43 14 21 44 51 66 68 37 27 40 32 34 64 -3 19 -14 49 -25 66 -10 17 -19 44
-19 60 0 16 -11 49 -25 74 -34 60 -40 74 -65 155 -12 38 -26 76 -32 83 -6 7
-15 35 -19 62 -4 27 -17 58 -28 69 -13 13 -21 34 -21 56 0 19 -11 56 -24 82
-48 95 -65 139 -70 176 -3 20 -14 49 -25 64 -12 14 -21 38 -21 54 0 15 -9 43
-19 61 -10 18 -25 56 -32 85 l-13 52 -130 4 c-112 3 -142 8 -206 31 -41 15
-80 34 -86 42 -6 8 -19 14 -28 14 -24 0 -52 16 -116 66 -93 72 -139 116 -151
146 -6 15 -20 30 -30 33 -11 4 -29 25 -41 48 -11 23 -29 53 -39 66 -11 13 -19
34 -19 48 0 13 -7 35 -16 48 -20 31 -29 272 -16 438 7 96 13 123 30 147 12 16
22 39 22 51 0 11 13 33 28 47 15 15 45 55 66 89 21 34 47 65 58 69 11 3 34 22
51 41 16 19 43 41 59 49 16 8 38 24 49 35 10 10 29 19 42 19 13 0 38 11 57 25
22 16 47 25 72 25 21 0 38 5 38 11 0 5 17 17 38 26 30 13 67 15 200 11 147 -4
165 -6 192 -26 16 -12 40 -22 54 -22 13 0 38 -11 54 -25 17 -14 38 -25 48 -25
38 -1 238 -158 276 -218 39 -60 67 -106 79 -129 15 -28 41 -29 78 -2 21 15 49
21 122 26 70 4 100 11 118 24 18 15 41 19 105 19 68 1 87 4 121 25 34 21 52
25 123 25 69 0 88 4 111 21 23 17 48 22 123 26 66 4 98 10 112 22 13 11 45 17
115 21 80 4 102 9 125 28 16 12 39 22 51 22 27 0 35 22 35 98 0 55 22 122 39
122 6 0 11 12 11 28 0 15 8 39 18 53 9 15 26 39 36 55 27 40 187 193 209 200
10 3 29 16 42 30 13 13 31 24 40 24 8 0 15 4 15 8 0 5 6 17 14 28 12 16 31 20
138 25 155 8 517 0 540 -12z m-3953 -3474 c36 -18 41 -32 41 -114 0 -56 -4
-75 -25 -105 -14 -20 -25 -48 -25 -62 0 -14 -11 -36 -25 -50 -14 -14 -25 -33
-25 -43 0 -10 -11 -40 -25 -67 -14 -27 -25 -56 -25 -64 0 -9 -6 -24 -14 -35
-8 -11 -21 -44 -29 -73 -9 -29 -23 -62 -31 -74 -9 -12 -16 -34 -16 -49 0 -14
-9 -38 -20 -52 -11 -14 -20 -33 -20 -42 0 -22 -28 -75 -40 -75 -6 0 -10 -8
-10 -18 0 -10 -11 -41 -25 -68 -14 -27 -25 -57 -25 -66 0 -9 -11 -38 -25 -64
-14 -26 -25 -53 -25 -60 0 -8 -9 -33 -19 -56 -11 -24 -22 -55 -26 -71 -3 -15
-14 -36 -25 -47 -11 -11 -20 -33 -20 -50 0 -17 -9 -39 -20 -50 -11 -11 -23
-34 -27 -50 l-5 -30 2680 0 2680 0 -10 42 c-5 24 -21 58 -35 77 -24 31 -33 57
-50 146 -3 17 -16 43 -29 58 -13 16 -24 36 -24 45 0 9 -9 31 -20 47 -11 17
-20 42 -20 56 0 14 -11 40 -24 57 -13 18 -26 50 -30 71 -3 21 -18 55 -32 77
-15 21 -31 53 -35 69 -25 92 -36 122 -51 137 -10 10 -18 26 -18 36 0 9 -11 35
-25 57 -13 22 -25 50 -25 62 0 12 -11 43 -25 69 -14 26 -25 55 -25 64 0 10
-12 35 -26 56 -38 56 -63 140 -64 212 0 54 4 66 25 88 l25 25 172 -7 c95 -4
180 -10 189 -15 24 -12 89 -124 89 -154 0 -15 9 -38 20 -52 11 -14 20 -36 20
-49 0 -13 22 -64 50 -112 36 -63 50 -99 50 -126 0 -23 8 -48 20 -63 11 -14 20
-32 20 -39 0 -7 11 -29 24 -49 14 -20 28 -49 31 -66 4 -17 16 -40 26 -50 11
-11 19 -33 19 -53 0 -33 19 -77 67 -155 12 -18 24 -49 28 -69 4 -20 15 -47 26
-60 10 -14 19 -36 19 -51 0 -14 11 -44 25 -66 13 -22 25 -50 25 -63 0 -12 9
-31 20 -42 13 -13 20 -33 20 -56 0 -21 8 -47 20 -61 11 -14 22 -40 26 -59 3
-18 14 -36 23 -39 9 -3 32 -20 52 -38 33 -31 37 -40 44 -105 9 -87 -3 -235
-20 -259 -10 -13 -34 -19 -97 -24 -107 -9 -6224 -9 -6341 -1 -67 6 -92 11
-102 25 -16 22 -28 188 -19 268 6 55 12 67 43 96 20 18 44 36 54 39 9 3 17 13
17 22 0 9 11 37 25 61 14 23 25 52 25 63 0 24 27 78 40 78 6 0 10 13 10 29 0
15 9 40 21 54 11 15 24 50 28 79 5 28 15 56 23 62 8 6 18 23 22 39 3 15 15 36
26 47 11 11 20 32 20 48 0 15 11 47 25 71 14 23 25 53 25 66 0 12 9 34 20 48
11 14 20 37 20 52 0 14 11 37 25 51 18 18 25 36 25 64 0 26 8 48 25 68 14 17
25 37 25 45 0 8 9 26 20 40 11 14 20 38 20 54 0 15 11 46 25 68 13 22 25 48
25 59 0 10 9 35 19 55 11 20 22 48 26 64 3 15 14 36 25 47 11 11 20 29 20 39
0 10 9 29 19 42 18 22 28 24 143 30 219 10 228 9 257 -6z"/>
<path d="M4911 5780 c-13 -11 -36 -20 -52 -20 -28 0 -43 -10 -109 -73 -73 -71
-82 -97 -84 -241 -1 -100 2 -130 12 -134 8 -2 22 -23 32 -46 25 -54 38 -69 78
-90 17 -9 32 -21 32 -26 0 -6 15 -10 34 -10 19 0 49 -11 70 -25 28 -19 50 -25
90 -25 40 0 60 6 86 25 19 14 41 25 51 25 23 0 139 116 139 139 0 10 11 35 25
55 21 32 25 48 25 116 0 66 -3 83 -20 100 -11 11 -22 32 -26 47 -3 16 -36 58
-72 96 -58 58 -71 67 -103 67 -21 0 -47 8 -62 20 -34 27 -113 27 -146 0z"/>
<path d="M2082 5265 c-30 -14 -64 -25 -75 -25 -39 -1 -147 -117 -147 -159 0
-11 -9 -30 -20 -41 -17 -17 -20 -33 -20 -121 0 -98 1 -102 35 -154 52 -78 128
-145 163 -145 16 0 41 -9 55 -20 19 -15 40 -20 87 -20 47 0 68 5 87 20 14 11
32 20 41 20 43 0 152 109 152 153 0 7 10 28 21 46 28 46 28 173 0 235 -24 56
-152 186 -183 186 -13 0 -43 11 -67 25 -53 31 -63 31 -129 0z"/>
<path d="M3966 4219 c-73 -7 -104 -14 -123 -29 -14 -11 -33 -20 -42 -20 -22 0
-99 -82 -134 -142 -16 -28 -27 -61 -27 -85 0 -21 -4 -44 -8 -50 -14 -22 7
-175 29 -209 10 -17 19 -40 19 -50 1 -23 50 -80 77 -88 11 -4 34 -24 51 -45
26 -32 38 -39 77 -44 26 -2 60 -14 76 -26 23 -17 33 -19 54 -11 15 6 40 10 58
10 38 0 113 27 146 52 13 10 34 18 47 18 14 0 25 8 29 20 3 10 19 30 36 44 16
14 29 31 29 39 0 8 9 26 20 40 12 15 20 40 20 61 0 20 7 53 15 73 8 19 15 51
15 70 0 44 -28 131 -52 162 -10 13 -18 34 -18 46 0 23 -22 45 -95 95 -21 14
-45 32 -55 41 -9 9 -37 19 -61 22 -24 3 -53 8 -64 10 -11 3 -64 1 -119 -4z"/>
<path d="M3070 2555 c-30 -13 -64 -24 -76 -25 -24 0 -104 -76 -104 -99 0 -9
-9 -31 -20 -49 -25 -41 -28 -166 -5 -196 8 -11 15 -27 15 -36 0 -20 77 -96
107 -104 11 -4 27 -13 33 -21 9 -11 35 -15 97 -15 70 0 89 4 110 20 14 11 35
20 47 20 31 1 94 88 105 144 14 74 -3 202 -32 239 -50 66 -90 97 -123 97 -20
0 -44 10 -62 25 -17 14 -31 25 -33 25 -2 -1 -29 -12 -59 -25z"/>
</g>
</svg>
