<?xml version="1.0" standalone="no"?>
<!DOCTYPE svg PUBLIC "-//W3C//DTD SVG 20010904//EN"
 "http://www.w3.org/TR/2001/REC-SVG-20010904/DTD/svg10.dtd">
<svg version="1.0" xmlns="http://www.w3.org/2000/svg"
 width="150.000000pt" height="150.000000pt" viewBox="0 0 150.000000 150.000000"
 preserveAspectRatio="xMidYMid meet">

<g transform="translate(0.000000,150.000000) scale(0.100000,-0.100000)"
fill="#000000" stroke="none">
<path d="M0 750 l0 -750 750 0 750 0 0 750 0 750 -750 0 -750 0 0 -750z m1144
547 c104 -60 100 -220 -7 -271 -69 -32 -128 -16 -186 50 l-32 36 -112 -26
c-62 -15 -131 -30 -154 -33 -36 -5 -43 -9 -43 -28 0 -18 14 -31 62 -58 l62
-35 35 23 c71 46 145 41 205 -14 143 -131 -20 -360 -193 -271 -55 28 -84 78
-83 146 l0 54 -62 35 c-81 45 -90 45 -81 -1 3 -20 10 -44 15 -53 4 -9 26 -61
48 -115 39 -98 41 -100 82 -112 53 -16 87 -48 101 -95 44 -146 -135 -247 -239
-135 -31 35 -36 51 -32 111 2 33 34 91 53 98 12 4 -1 49 -65 220 l-30 77 -37
0 c-76 0 -145 71 -145 148 0 175 214 221 299 64 1 -1 68 11 150 28 81 16 149
30 151 30 1 0 8 17 14 38 33 99 135 141 224 89z m-879 -749 c-3 -13 -10 -32
-15 -43 -38 -87 -76 -178 -91 -217 l-17 -48 604 0 c332 0 604 4 604 9 0 8 -37
101 -75 187 -41 94 -45 105 -45 120 0 11 8 14 26 12 24 -3 33 -18 91 -158 35
-85 71 -162 79 -171 9 -10 14 -26 12 -36 -3 -17 -33 -18 -688 -18 -669 0 -685
0 -688 19 -2 11 2 24 10 30 12 9 42 77 133 299 12 29 21 37 41 37 21 0 24 -3
19 -22z"/>
<path d="M1006 1239 c-36 -28 -38 -105 -3 -137 36 -34 76 -37 117 -10 29 20
35 30 38 66 3 36 -1 47 -27 72 -36 37 -85 40 -125 9z"/>
<path d="M410 1133 c-96 -49 -32 -194 74 -167 34 8 66 49 66 85 0 34 -44 86
-80 94 -15 3 -40 -2 -60 -12z"/>
<path d="M789 891 c-51 -51 -31 -145 36 -171 38 -14 98 7 123 45 21 29 22 38
12 74 -22 82 -113 109 -171 52z"/>
<path d="M634 556 c-72 -32 -53 -146 25 -146 83 0 113 108 40 145 -33 18 -26
18 -65 1z"/>
</g>
</svg>
