<?xml version="1.0" encoding="utf-8"?>
<!-- Svg Vector Icons : http://www.onlinewebfonts.com/icon -->
<!DOCTYPE svg PUBLIC "-//W3C//DTD SVG 1.1//EN" "http://www.w3.org/Graphics/SVG/1.1/DTD/svg11.dtd">
<svg version="1.1" xmlns="http://www.w3.org/2000/svg" xmlns:xlink="http://www.w3.org/1999/xlink" x="0px" y="0px" viewBox="0 0 256 256" enable-background="new 0 0 256 256" xml:space="preserve">
<metadata> Svg Vector Icons : http://www.onlinewebfonts.com/icon </metadata>
<g><g><path fill="#000000" d="M241.3,215.3l-23.6-56.6h-9.4l23.6,56.6H24.2l23.6-56.6h-9.4l-23.6,56.6c-2.7,0-4.7,1.9-4.7,4.6s2.2,4.9,4.9,4.9h226.2c2.7,0,4.9-2.2,4.9-4.9S244,215.3,241.3,215.3z"/><path fill="#000000" d="M65.6,98.5c5.8,3.4,12.3,4.1,18.4,2.9l18.9,50.6c-3.8,2-7.2,5-9.5,9c-6.5,11.3-2.6,25.7,8.8,32.3c11.3,6.5,25.8,2.7,32.3-8.5c6.5-11.3,2.6-25.7-8.8-32.3c-4.3-2.5-9-3.5-13.5-3.2L92.3,98c1.8-1.1,3.5-2.5,5-4l23.5,13.4c-4.2,12.4,0.1,26.4,12,33.3c13.6,7.9,30.8,3.3,38.6-10.2c7.8-13.5,3.1-30.9-10.5-38.7c-12-7-26.9-2.7-34.9,6.5L102.8,85c0.9-2.5,1.3-5,1.4-7.5L158,65.9c2,5.5,5.8,10.5,11.3,13.7c12.4,7.2,28.3,3,35.4-9.4c7.1-12.4,2.8-28.3-9.6-35.5c-12.4-7.2-28.3-3-35.4,9.4c-2.3,4-3.3,8.3-3.3,12.6l-53.7,10.7c-2-5.6-5.8-10.6-11.4-13.8c-12.5-7.2-28.3-3-35.4,9.4C48.9,75.4,53.2,91.3,65.6,98.5z M126.1,179.9c-3.9,6.8-12.5,9.1-19.3,5.1c-6.8-4-9.1-12.6-5.3-19.4c3.9-6.8,12.5-9.1,19.3-5.1C127.7,164.5,130,173.1,126.1,179.9z M156.3,99.9c9.1,5.3,12.2,16.8,7,25.8c-5.2,9-16.8,12-25.8,6.8c-9.1-5.3-12.2-16.8-7-25.8C135.7,97.7,147.2,94.7,156.3,99.9z M190.5,42.9c7.9,4.6,10.7,14.7,6.1,22.7c-4.6,7.9-14.7,10.6-22.6,6c-4.9-2.9-7.8-7.9-8.3-13.1v-0.8c-0.1-3,0.6-5.9,2.1-8.7C172.4,41,182.5,38.3,190.5,42.9z M64.1,67.8c4.6-7.9,14.7-10.6,22.6-6c7.9,4.6,10.7,14.7,6.1,22.7c-4.6,7.9-14.7,10.6-22.6,6C62.3,85.8,59.6,75.7,64.1,67.8z"/></g></g>
</svg>