<?xml version="1.0" standalone="no"?>
<!DOCTYPE svg PUBLIC "-//W3C//DTD SVG 20010904//EN"
 "http://www.w3.org/TR/2001/REC-SVG-20010904/DTD/svg10.dtd">
<svg version="1.0" xmlns="http://www.w3.org/2000/svg"
 width="750.000000pt" height="750.000000pt" viewBox="0 0 750.000000 750.000000"
 preserveAspectRatio="xMidYMid meet">

<g transform="translate(0.000000,750.000000) scale(0.100000,-0.100000)"
fill="#000000" stroke="none">
<path d="M0 3750 l0 -3750 3750 0 3750 0 0 3750 0 3750 -3750 0 -3750 0 0
-3750z m5540 2835 c0 -23 3 -25 50 -25 47 0 50 -2 50 -25 0 -23 3 -25 50 -25
47 0 50 -2 50 -25 0 -23 3 -25 50 -25 47 0 50 -2 50 -25 0 -20 5 -25 25 -25
20 0 25 -5 25 -25 0 -20 5 -25 25 -25 23 0 25 -3 25 -50 0 -47 2 -50 25 -50
20 0 25 -5 25 -25 0 -20 5 -25 25 -25 24 0 25 -2 25 -75 0 -73 1 -75 25 -75
l25 0 0 -250 0 -250 -25 0 c-23 0 -25 -3 -25 -50 0 -47 -2 -50 -25 -50 -20 0
-25 -5 -25 -25 0 -20 -5 -25 -25 -25 -23 0 -25 -3 -25 -50 0 -47 -2 -50 -25
-50 -20 0 -25 -5 -25 -25 0 -20 -5 -25 -25 -25 -20 0 -25 -5 -25 -25 0 -23 -3
-25 -50 -25 -47 0 -50 -2 -50 -25 0 -20 -5 -25 -25 -25 -20 0 -25 -5 -25 -25
0 -24 -2 -25 -75 -25 -73 0 -75 -1 -75 -25 l0 -25 -200 0 -200 0 0 25 c0 23
-3 25 -50 25 -47 0 -50 2 -50 25 0 23 -3 25 -50 25 -47 0 -50 2 -50 25 0 20
-5 25 -25 25 -20 0 -25 5 -25 25 0 20 -5 25 -25 25 -20 0 -25 5 -25 25 0 20
-5 25 -25 25 -20 0 -25 5 -25 25 0 20 -5 25 -25 25 -20 0 -25 5 -25 25 0 20
-5 25 -25 25 -20 0 -25 5 -25 25 0 20 -5 25 -25 25 -23 0 -25 3 -25 50 l0 50
-100 0 -100 0 0 -25 0 -25 -125 0 -125 0 0 -25 c0 -24 -2 -25 -75 -25 -73 0
-75 -1 -75 -25 l0 -25 -125 0 -125 0 0 -25 0 -25 -100 0 -100 0 0 -25 0 -25
-125 0 -125 0 0 -25 0 -25 -150 0 -150 0 0 -125 0 -125 25 0 c20 0 25 -5 25
-25 0 -23 3 -25 50 -25 47 0 50 -2 50 -25 0 -23 3 -25 50 -25 47 0 50 -2 50
-25 0 -23 3 -25 50 -25 47 0 50 -2 50 -25 0 -20 5 -25 25 -25 20 0 25 -5 25
-25 0 -23 3 -25 50 -25 47 0 50 -2 50 -25 0 -23 3 -25 50 -25 47 0 50 -2 50
-25 0 -20 5 -25 25 -25 20 0 25 5 25 25 0 20 5 25 25 25 20 0 25 5 25 25 0 23
3 25 50 25 47 0 50 2 50 25 0 20 5 25 25 25 20 0 25 5 25 25 0 23 3 25 50 25
47 0 50 2 50 25 l0 25 100 0 100 0 0 25 0 25 125 0 125 0 0 -25 c0 -24 2 -25
75 -25 73 0 75 -1 75 -25 0 -24 2 -25 75 -25 73 0 75 -1 75 -25 0 -20 5 -25
25 -25 20 0 25 -5 25 -25 0 -20 5 -25 25 -25 20 0 25 -5 25 -25 0 -20 5 -25
25 -25 20 0 25 -5 25 -25 0 -20 5 -25 25 -25 20 0 25 -5 25 -25 0 -20 5 -25
25 -25 20 0 25 -5 25 -25 0 -20 5 -25 25 -25 23 0 25 -3 25 -50 0 -47 2 -50
25 -50 24 0 25 -2 25 -75 0 -73 1 -75 25 -75 l25 0 0 -200 0 -200 -25 0 c-24
0 -25 -2 -25 -75 0 -73 -1 -75 -25 -75 -23 0 -25 -3 -25 -50 0 -47 -2 -50 -25
-50 -20 0 -25 -5 -25 -25 0 -20 -5 -25 -25 -25 -23 0 -25 -3 -25 -50 0 -47 -2
-50 -25 -50 -20 0 -25 -5 -25 -25 0 -23 -3 -25 -50 -25 -47 0 -50 -2 -50 -25
0 -20 -5 -25 -25 -25 -20 0 -25 -5 -25 -25 0 -23 -3 -25 -50 -25 -47 0 -50 -2
-50 -25 0 -24 -2 -25 -75 -25 -73 0 -75 -1 -75 -25 l0 -25 -225 0 -225 0 0 25
c0 23 -3 25 -50 25 -47 0 -50 2 -50 25 0 23 -3 25 -50 25 -47 0 -50 2 -50 25
0 23 -3 25 -50 25 -47 0 -50 2 -50 25 0 20 -5 25 -25 25 -20 0 -25 5 -25 25 0
20 -5 25 -25 25 -23 0 -25 3 -25 50 0 47 -2 50 -25 50 -20 0 -25 5 -25 25 0
20 -5 25 -25 25 -23 0 -25 3 -25 50 0 47 -2 50 -25 50 l-25 0 0 125 0 125 -25
0 c-23 0 -25 3 -25 50 0 47 2 50 25 50 l25 0 0 125 0 125 -25 0 c-20 0 -25 5
-25 25 0 23 -3 25 -50 25 -47 0 -50 2 -50 25 0 23 -3 25 -50 25 -47 0 -50 2
-50 25 0 20 -5 25 -25 25 -20 0 -25 5 -25 25 0 23 -3 25 -50 25 -47 0 -50 2
-50 25 0 23 -3 25 -50 25 -47 0 -50 2 -50 25 0 23 -3 25 -50 25 -47 0 -50 2
-50 25 0 24 -2 25 -75 25 l-75 0 0 -100 0 -100 25 0 25 0 0 -100 0 -100 25 0
c20 0 25 -5 25 -25 0 -20 5 -25 25 -25 l25 0 0 -100 0 -100 25 0 c23 0 25 -3
25 -50 0 -47 2 -50 25 -50 24 0 25 -2 25 -75 0 -73 1 -75 25 -75 23 0 25 -3
25 -50 0 -47 2 -50 25 -50 23 0 25 -3 25 -50 0 -47 2 -50 25 -50 24 0 25 -2
25 -75 0 -73 1 -75 25 -75 23 0 25 -3 25 -50 0 -47 2 -50 25 -50 24 0 25 -2
25 -75 0 -73 1 -75 25 -75 20 0 25 -5 25 -25 l0 -25 100 0 100 0 0 -25 c0 -24
2 -25 75 -25 73 0 75 -1 75 -25 0 -23 3 -25 50 -25 47 0 50 -2 50 -25 0 -20 5
-25 25 -25 20 0 25 -5 25 -25 0 -20 5 -25 25 -25 20 0 25 -5 25 -25 0 -20 5
-25 25 -25 20 0 25 -5 25 -25 0 -20 5 -25 25 -25 23 0 25 -3 25 -50 0 -47 2
-50 25 -50 24 0 25 -2 25 -75 0 -73 1 -75 25 -75 l25 0 0 -175 0 -175 -25 0
c-24 0 -25 -2 -25 -75 0 -73 -1 -75 -25 -75 -20 0 -25 -5 -25 -25 0 -20 -5
-25 -25 -25 -23 0 -25 -3 -25 -50 0 -47 -2 -50 -25 -50 -20 0 -25 -5 -25 -25
0 -20 -5 -25 -25 -25 -20 0 -25 -5 -25 -25 0 -23 -3 -25 -50 -25 -47 0 -50 -2
-50 -25 0 -23 -3 -25 -50 -25 -47 0 -50 -2 -50 -25 l0 -25 -100 0 -100 0 0
-25 c0 -23 -3 -25 -50 -25 -47 0 -50 2 -50 25 l0 25 -125 0 -125 0 0 25 c0 23
-3 25 -50 25 -47 0 -50 2 -50 25 0 20 -5 25 -25 25 -20 0 -25 5 -25 25 0 20
-5 25 -25 25 -20 0 -25 5 -25 25 0 20 -5 25 -25 25 -20 0 -25 5 -25 25 0 20
-5 25 -25 25 -20 0 -25 5 -25 25 0 20 -5 25 -25 25 -23 0 -25 3 -25 50 0 47
-2 50 -25 50 l-25 0 0 100 0 100 -25 0 c-20 0 -25 5 -25 25 0 20 5 25 25 25
l25 0 0 150 0 150 25 0 c23 0 25 3 25 50 0 47 2 50 25 50 20 0 25 5 25 25 0
20 5 25 25 25 23 0 25 3 25 50 0 47 2 50 25 50 20 0 25 5 25 25 0 23 3 25 50
25 l50 0 0 100 0 100 -25 0 c-24 0 -25 2 -25 75 0 73 -1 75 -25 75 -23 0 -25
3 -25 50 0 47 -2 50 -25 50 -24 0 -25 2 -25 75 0 73 -1 75 -25 75 -24 0 -25 2
-25 75 0 73 -1 75 -25 75 -24 0 -25 2 -25 75 0 73 -1 75 -25 75 -23 0 -25 3
-25 50 0 47 -2 50 -25 50 -24 0 -25 2 -25 75 0 73 -1 75 -25 75 -24 0 -25 2
-25 75 0 73 -1 75 -25 75 -23 0 -25 3 -25 50 0 47 -2 50 -25 50 -23 0 -25 3
-25 50 l0 50 -200 0 -200 0 0 25 c0 23 -3 25 -50 25 -47 0 -50 2 -50 25 0 23
-3 25 -50 25 -47 0 -50 2 -50 25 0 20 -5 25 -25 25 -20 0 -25 5 -25 25 0 20
-5 25 -25 25 -20 0 -25 5 -25 25 0 20 -5 25 -25 25 -20 0 -25 5 -25 25 0 20
-5 25 -25 25 -20 0 -25 5 -25 25 0 20 -5 25 -25 25 -23 0 -25 3 -25 50 0 47
-2 50 -25 50 l-25 0 0 100 0 100 -25 0 -25 0 0 100 0 100 25 0 25 0 0 100 0
100 25 0 c23 0 25 3 25 50 0 47 2 50 25 50 23 0 25 3 25 50 0 47 2 50 25 50
20 0 25 5 25 25 0 20 5 25 25 25 20 0 25 5 25 25 0 20 5 25 25 25 20 0 25 5
25 25 0 20 5 25 25 25 20 0 25 5 25 25 0 23 3 25 50 25 47 0 50 2 50 25 0 24
2 25 75 25 73 0 75 1 75 25 l0 25 200 0 200 0 0 -25 c0 -23 3 -25 50 -25 47 0
50 -2 50 -25 0 -23 3 -25 50 -25 47 0 50 -2 50 -25 0 -23 3 -25 50 -25 47 0
50 -2 50 -25 0 -20 5 -25 25 -25 20 0 25 -5 25 -25 0 -20 5 -25 25 -25 20 0
25 -5 25 -25 0 -20 5 -25 25 -25 23 0 25 -3 25 -50 0 -47 2 -50 25 -50 23 0
25 -3 25 -50 l0 -50 75 0 c73 0 75 1 75 25 l0 25 125 0 125 0 0 25 0 25 125 0
125 0 0 25 0 25 125 0 125 0 0 25 0 25 125 0 125 0 0 25 0 25 125 0 125 0 0
25 c0 24 2 25 75 25 l75 0 0 50 c0 47 2 50 25 50 24 0 25 2 25 75 0 73 1 75
25 75 24 0 25 2 25 75 0 73 1 75 25 75 20 0 25 5 25 25 0 20 5 25 25 25 20 0
25 5 25 25 0 20 5 25 25 25 20 0 25 5 25 25 0 20 5 25 25 25 20 0 25 5 25 25
0 20 5 25 25 25 20 0 25 5 25 25 0 23 3 25 50 25 47 0 50 2 50 25 0 23 3 25
50 25 47 0 50 2 50 25 l0 25 225 0 225 0 0 -25z m-4200 -3775 c0 -47 -2 -50
-25 -50 l-25 0 0 -100 0 -100 -25 0 c-20 0 -25 -5 -25 -25 0 -20 -5 -25 -25
-25 -24 0 -25 -2 -25 -75 0 -73 -1 -75 -25 -75 -24 0 -25 -2 -25 -75 0 -73 -1
-75 -25 -75 -23 0 -25 -3 -25 -50 0 -47 -2 -50 -25 -50 -23 0 -25 -3 -25 -50
0 -47 -2 -50 -25 -50 -23 0 -25 -3 -25 -50 0 -47 -2 -50 -25 -50 -24 0 -25 -2
-25 -75 0 -73 -1 -75 -25 -75 -23 0 -25 -3 -25 -50 0 -47 -2 -50 -25 -50 -23
0 -25 -3 -25 -50 0 -47 -2 -50 -25 -50 l-25 0 0 -100 0 -100 -25 0 c-23 0 -25
-3 -25 -50 0 -47 -2 -50 -25 -50 -20 0 -25 -5 -25 -25 l0 -25 3025 0 3025 0 0
75 c0 73 -1 75 -25 75 -23 0 -25 3 -25 50 0 47 -2 50 -25 50 -24 0 -25 2 -25
75 0 73 -1 75 -25 75 -23 0 -25 3 -25 50 0 47 -2 50 -25 50 -24 0 -25 2 -25
75 0 73 -1 75 -25 75 -23 0 -25 3 -25 50 0 47 -2 50 -25 50 -23 0 -25 3 -25
50 0 47 -2 50 -25 50 -24 0 -25 2 -25 75 0 73 -1 75 -25 75 -20 0 -25 5 -25
25 0 20 -5 25 -25 25 l-25 0 0 100 0 100 -25 0 c-23 0 -25 3 -25 50 0 47 -2
50 -25 50 -23 0 -25 3 -25 50 0 47 -2 50 -25 50 l-25 0 0 100 0 100 125 0 125
0 0 -25 c0 -20 5 -25 25 -25 24 0 25 -2 25 -75 0 -73 1 -75 25 -75 23 0 25 -3
25 -50 0 -47 2 -50 25 -50 23 0 25 -3 25 -50 0 -47 2 -50 25 -50 24 0 25 -2
25 -75 0 -73 1 -75 25 -75 23 0 25 -3 25 -50 0 -47 2 -50 25 -50 24 0 25 -2
25 -75 0 -73 1 -75 25 -75 23 0 25 -3 25 -50 0 -47 2 -50 25 -50 23 0 25 -3
25 -50 0 -47 2 -50 25 -50 24 0 25 -2 25 -75 0 -73 1 -75 25 -75 23 0 25 -3
25 -50 0 -47 2 -50 25 -50 24 0 25 -2 25 -75 0 -73 1 -75 25 -75 23 0 25 -3
25 -50 0 -47 2 -50 25 -50 23 0 25 -3 25 -50 0 -47 2 -50 25 -50 20 0 25 -5
25 -25 0 -20 5 -25 25 -25 20 0 25 -5 25 -25 0 -20 5 -25 25 -25 l25 0 0 -100
0 -100 -25 0 c-20 0 -25 -5 -25 -25 l0 -25 -3400 0 -3400 0 0 25 c0 20 -5 25
-25 25 l-25 0 0 100 0 100 25 0 c20 0 25 5 25 25 0 23 3 25 50 25 l50 0 0 75
c0 73 1 75 25 75 23 0 25 3 25 50 0 47 2 50 25 50 24 0 25 2 25 75 0 73 1 75
25 75 23 0 25 3 25 50 0 47 2 50 25 50 23 0 25 3 25 50 0 47 2 50 25 50 24 0
25 2 25 75 0 73 1 75 25 75 23 0 25 3 25 50 0 47 2 50 25 50 24 0 25 2 25 75
0 73 1 75 25 75 23 0 25 3 25 50 0 47 2 50 25 50 23 0 25 3 25 50 0 47 2 50
25 50 24 0 25 2 25 75 0 73 1 75 25 75 23 0 25 3 25 50 0 47 2 50 25 50 24 0
25 2 25 75 0 73 1 75 25 75 20 0 25 5 25 25 l0 25 125 0 125 0 0 -50z"/>
<path d="M5140 6285 c0 -23 -3 -25 -50 -25 -47 0 -50 -2 -50 -25 0 -20 -5 -25
-25 -25 -20 0 -25 -5 -25 -25 0 -20 -5 -25 -25 -25 -20 0 -25 -5 -25 -25 0
-20 -5 -25 -25 -25 l-25 0 0 -250 0 -250 25 0 c20 0 25 -5 25 -25 0 -20 5 -25
25 -25 20 0 25 -5 25 -25 0 -20 5 -25 25 -25 20 0 25 -5 25 -25 0 -20 5 -25
25 -25 20 0 25 -5 25 -25 0 -24 2 -25 75 -25 73 0 75 -1 75 -25 l0 -25 100 0
100 0 0 25 c0 23 3 25 50 25 47 0 50 2 50 25 0 23 3 25 50 25 47 0 50 2 50 25
0 20 5 25 25 25 20 0 25 5 25 25 0 20 5 25 25 25 20 0 25 5 25 25 0 20 5 25
25 25 l25 0 0 200 0 200 -25 0 c-23 0 -25 3 -25 50 0 47 -2 50 -25 50 -20 0
-25 5 -25 25 0 20 -5 25 -25 25 -20 0 -25 5 -25 25 0 20 -5 25 -25 25 -20 0
-25 5 -25 25 0 23 -3 25 -50 25 -47 0 -50 2 -50 25 l0 25 -175 0 -175 0 0 -25z"/>
<path d="M2190 5735 c0 -24 -2 -25 -75 -25 -73 0 -75 -1 -75 -25 0 -23 -3 -25
-50 -25 -47 0 -50 -2 -50 -25 0 -20 -5 -25 -25 -25 -20 0 -25 -5 -25 -25 0
-20 -5 -25 -25 -25 l-25 0 0 -100 0 -100 -25 0 -25 0 0 -100 0 -100 25 0 c23
0 25 -3 25 -50 0 -47 2 -50 25 -50 20 0 25 -5 25 -25 0 -20 5 -25 25 -25 20 0
25 -5 25 -25 0 -20 5 -25 25 -25 23 0 25 -3 25 -50 l0 -50 75 0 c73 0 75 -1
75 -25 l0 -25 125 0 125 0 0 25 c0 24 2 25 75 25 73 0 75 1 75 25 0 20 5 25
25 25 20 0 25 5 25 25 0 20 5 25 25 25 20 0 25 5 25 25 0 20 5 25 25 25 23 0
25 3 25 50 0 47 2 50 25 50 l25 0 0 150 0 150 -25 0 c-23 0 -25 3 -25 50 0 47
-2 50 -25 50 -20 0 -25 5 -25 25 0 20 -5 25 -25 25 -20 0 -25 5 -25 25 0 20
-5 25 -25 25 -20 0 -25 5 -25 25 0 20 -5 25 -25 25 -20 0 -25 5 -25 25 0 24
-2 25 -75 25 -73 0 -75 1 -75 25 0 24 -2 25 -75 25 -73 0 -75 -1 -75 -25z"/>
<path d="M4090 4585 c0 -23 -3 -25 -50 -25 -47 0 -50 -2 -50 -25 0 -20 -5 -25
-25 -25 -20 0 -25 -5 -25 -25 0 -20 -5 -25 -25 -25 -20 0 -25 -5 -25 -25 0
-20 -5 -25 -25 -25 -23 0 -25 -3 -25 -50 0 -47 -2 -50 -25 -50 l-25 0 0 -200
0 -200 25 0 c23 0 25 -3 25 -50 0 -47 2 -50 25 -50 20 0 25 -5 25 -25 0 -20 5
-25 25 -25 20 0 25 -5 25 -25 0 -20 5 -25 25 -25 20 0 25 -5 25 -25 0 -20 5
-25 25 -25 20 0 25 -5 25 -25 0 -24 2 -25 75 -25 73 0 75 -1 75 -25 0 -23 3
-25 50 -25 47 0 50 2 50 25 l0 25 100 0 100 0 0 25 c0 24 2 25 75 25 l75 0 0
50 c0 47 2 50 25 50 20 0 25 5 25 25 0 20 5 25 25 25 20 0 25 5 25 25 0 20 5
25 25 25 23 0 25 3 25 50 0 47 2 50 25 50 24 0 25 2 25 75 0 73 -1 75 -25 75
l-25 0 0 100 0 100 -25 0 c-23 0 -25 3 -25 50 0 47 -2 50 -25 50 -20 0 -25 5
-25 25 0 20 -5 25 -25 25 -20 0 -25 5 -25 25 0 20 -5 25 -25 25 -20 0 -25 5
-25 25 0 23 -3 25 -50 25 -47 0 -50 2 -50 25 l0 25 -200 0 -200 0 0 -25z"/>
<path d="M3290 2835 c0 -24 -2 -25 -75 -25 -73 0 -75 -1 -75 -25 0 -23 -3 -25
-50 -25 -47 0 -50 -2 -50 -25 0 -20 -5 -25 -25 -25 -23 0 -25 -3 -25 -50 0
-47 -2 -50 -25 -50 l-25 0 0 -175 0 -175 25 0 c23 0 25 -3 25 -50 0 -47 2 -50
25 -50 20 0 25 -5 25 -25 0 -23 3 -25 50 -25 47 0 50 -2 50 -25 l0 -25 150 0
150 0 0 25 c0 23 3 25 50 25 47 0 50 2 50 25 0 20 5 25 25 25 20 0 25 5 25 25
0 20 5 25 25 25 20 0 25 5 25 25 0 20 5 25 25 25 l25 0 0 175 0 175 -25 0
c-23 0 -25 3 -25 50 0 47 -2 50 -25 50 -20 0 -25 5 -25 25 0 23 -3 25 -50 25
-47 0 -50 2 -50 25 0 23 -3 25 -50 25 -47 0 -50 2 -50 25 0 23 -3 25 -50 25
-47 0 -50 -2 -50 -25z"/>
</g>
</svg>
